# xmcd
#
# Track frame offsets:
#	150
#	19313
#	39675
#	58225
#
# Disc length: 1029 seconds
#
# Revision: 4294836225
# Processed by: cddbd v1.5.2PL0 Copyright (c) Steve Scherf et al.
# Submitted via: EZCDAudioConverter 8.0.2.1
#
DISCID=34040304
DTITLE=Hồ Ngọc Hà - The First Single 
DYEAR=2009
DGENRE=R&B
TTITLE0=Xin hãy thứ tha
TTITLE1=Yêu thương nhạt nhòa
TTITLE2=Girls Night
TTITLE3=My Apology
EXTD=
EXTT0=
EXTT1=
EXTT2=
EXTT3=
PLAYORDER=
